<svg width="1006" height="46" viewBox="0 0 1006 46" fill="none" xmlns="http://www.w3.org/2000/svg">
<path d="M503 23C511.333 -3.66667 519.667 -3.66667 528 23C536.333 49.6667 544.667 49.6667 553 23C561.333 -3.66667 569.667 -3.66667 578 23C586.333 49.6667 594.667 49.6667 603 23C611.333 -3.66667 619.667 -3.66667 628 23C636.333 49.6667 644.667 49.6667 653 23C661.333 -3.66667 669.667 -3.66667 678 23C686.333 49.6667 694.667 49.6667 703 23C711.333 -3.66667 719.667 -3.66667 728 23C736.333 49.6667 744.667 49.6667 753 23C761.333 -3.66667 769.667 -3.66667 778 23C786.333 49.6667 794.667 49.6667 803 23C811.333 -3.66667 819.667 -3.66667 828 23C836.333 49.6667 844.667 49.6667 853 23C861.333 -3.66667 869.667 -3.66667 878 23C886.333 49.6667 894.667 49.6667 903 23C911.333 -3.66667 919.667 -3.66667 928 23C936.333 49.6667 944.667 49.6667 953 23C961.333 -3.66667 969.667 -3.66667 978 23C986.333 49.6667 994.667 49.6667 1003 23" stroke="#6CC0EF" stroke-width="5"/>
<path d="M3 23C11.3333 -3.66667 19.6667 -3.66667 28 23C36.3333 49.6667 44.6667 49.6667 53 23C61.3333 -3.66667 69.6667 -3.66667 78 23C86.3333 49.6667 94.6667 49.6667 103 23C111.333 -3.66667 119.667 -3.66667 128 23C136.333 49.6667 144.667 49.6667 153 23C161.333 -3.66667 169.667 -3.66667 178 23C186.333 49.6667 194.667 49.6667 203 23C211.333 -3.66667 219.667 -3.66667 228 23C236.333 49.6667 244.667 49.6667 253 23C261.333 -3.66667 269.667 -3.66667 278 23C286.333 49.6667 294.667 49.6667 303 23C311.333 -3.66667 319.667 -3.66667 328 23C336.333 49.6667 344.667 49.6667 353 23C361.333 -3.66667 369.667 -3.66667 378 23C386.333 49.6667 394.667 49.6667 403 23C411.333 -3.66667 419.667 -3.66667 428 23C436.333 49.6667 444.667 49.6667 453 23C461.333 -3.66667 469.667 -3.66667 478 23C486.333 49.6667 494.667 49.6667 503 23" stroke="#6CC0EF" stroke-width="5"/>
</svg>
